<?xml version="1.0" encoding="UTF-8"?>
<svg id="Layer_1" xmlns="http://www.w3.org/2000/svg" xmlns:i="http://ns.adobe.com/AdobeIllustrator/10.0/" version="1.1" viewBox="0 0 142 134">
  <!-- Generator: Adobe Illustrator 30.2.1, SVG Export Plug-In . SVG Version: 2.1.1 Build 1)  -->
  <defs>
    <style>
      .st0 {
        fill: #111921;
      }

      .st1 {
        fill: #111920;
      }

      .st2 {
        fill: #131b23;
      }

      .st3 {
        fill: #f2f2f3;
      }

      .st4 {
        fill: #fcbd4c;
      }

      .st5 {
        fill: #101820;
      }

      .st6 {
        fill: #141c24;
      }

      .st7 {
        fill: #feb61b;
      }

      .st8 {
        fill: #e8e9ea;
      }

      .st9 {
        fill: #fefefe;
      }

      .st10 {
        fill: #161e25;
      }

      .st11 {
        fill: #efeff0;
      }

      .st12 {
        fill: #fcbd4b;
      }
    </style>
  </defs>
  <path class="st5" d="M64.75,123.26c-7.84.43-18.23-1.51-24.72-6.31-8.26-6.11-12.35-16.85-13.6-26.96-.57-4.62-1.91-8.95-2.24-13.64-.31-4.41-.4-8.78,0-13.21,1.44-15.89,10.63-29.28,24.54-36.94,5.54-3.05,11.46-4.51,17.88-5.89-.39,2.31-1.72,3.47-1.57,6.14l11.02-6.89c4.43-2.77,8.54-11.88,10.18-16.7,3.34,3,6.76,5.22,9.53,8.27,8.26,9.07,10.79,19.98,8.73,31.95l6.76-6.11c5.26,11.88,8.44,19.83,7.69,33.6-.7,12.83-6.53,24.42-14.91,33.92-2.52,2.86-9.08,8.96-11.87,10.71-8.3,5.21-17.77,7.52-27.44,8.05ZM57.5,36.01l1.94-5.5c-.59,1.68,2.64-5.06,2.57-5.15-.31-.36-1-.66-1.63-.49-14.33,3.7-26.56,14.63-30.36,28.77-1.13,1.4-1.44,3.55-1.85,5.49-1.84,8.69-1.7,17.42.13,26,.9-5.92,3.11-10.82,7.86-14.7-2.73-1.82-5.34-2.99-7.58-5.26,5.62-4.17,10.46-8.55,15.08-13.52,3.75-4.03,6.89-8.32,10.83-11.78.09,1.18-.9,1.97-1.6,3.03-4.74,7.22-10.08,13.59-15.92,19.64-.86.89-2.53,1.3-2.95,2.84,11.58,7.1,23.91,9.7,36.95,5.55,8.57-2.72,14.37-8.68,18.46-16.99-.57,6.1-4.63,10.95-8.9,14.5-.48.4-1.28.44-1.55,1.12v.43c-13.46,7.93-27.24,7.68-41.41,1.06-1.79,1.17-2.07,3.14-3.01,4.47-6.14,8.74-5.32,18.32-1.11,27.96,2.39,5.48,6.42,9.58,11.72,12.3,15.24,7.84,32.7,4.1,46.91-4.1.53-.53.58-1.66,1.31-1.79,1.41,1.74,8.6-7.05,10.03-8.62,10.9-14.9,17.71-41.9,6.82-58.39-3.51,3.7-7.06,6.58-11.95,8.19,3.69-7.72,4.96-15.76,2.94-23.87-1.22-4.92-3.9-9.06-7-13.03-1.28-1.64-2.32-3.27-4.27-4.21-.81-.57-1.12-2.03-2.73-2.2-.8,9.77-7.68,14.7-15.71,18.75-5.2,2.62-9.83,5.78-14.02,9.5Z"/>
  <path class="st7" d="M93.39,109.89c.16-.38.44-.89.69-1.26,3.73-.44,8.91-10.63,10.03-14.71l-5.89,2.69c1.34-4.75,3.24-9.09,4.29-14.16l-6.84,5.16c.7-10.53-5.12-15.78-14.36-18.33-.54-.15-.72-.5-.77-.83,4.27-3.55,8.33-8.4,8.9-14.5-4.09,8.3-9.89,14.27-18.46,16.99-13.04,4.14-25.37,1.55-36.95-5.55.43-1.54,2.09-1.94,2.95-2.84,5,2.79,11.01,3.98,17.02,4.09,12.17.24,20.74-7.64,24.53-18.63,15.75-4.5,17.98-22.5,13.32-35.3-.39-1.06-2.47-1.57-1.87-2.74,1.95.94,2.99,2.57,4.27,4.21,3.1,3.96,5.78,8.11,7,13.03,2.01,8.11.74,16.15-2.94,23.87,4.88-1.62,8.44-4.49,11.95-8.19,10.89,16.49,4.08,43.49-6.82,58.39-1.43,1.56-8.62,10.36-10.03,8.62ZM103.48,81.6c6.68-7.59,6.12-17.69,1.39-25.31-.82,3.86.48,8.69-1.2,11.44-1.74-1.15-2.81-2.44-4.48-3.13,2.96,7.72,3.44,8.89,4.3,17Z"/>
  <path class="st4" d="M89.97,9.96c-.61,1.17,1.48,1.67,1.87,2.74,4.66,12.8,2.43,30.8-13.32,35.3-3.8,10.99-12.37,18.87-24.53,18.63-6.01-.12-12.01-1.3-17.02-4.09,5.83-6.04,11.17-12.41,15.92-19.64.7-1.06,1.68-1.85,1.6-3.03,1.14-1,2.18-2.62,3.02-3.86,4.19-3.72,8.83-6.89,14.02-9.5,8.03-4.05,14.92-8.98,15.71-18.75,1.61.17,1.93,1.64,2.73,2.2Z"/>
  <path class="st7" d="M59.44,30.51l-1.94,5.5c-.84,1.24-1.88,2.86-3.02,3.86-3.94,3.46-7.08,7.75-10.83,11.78-4.62,4.97-9.46,9.35-15.08,13.52,2.24,2.27,4.86,3.44,7.58,5.26-4.75,3.89-6.96,8.78-7.86,14.7-1.82-8.58-1.97-17.31-.13-26,.41-1.94.72-4.09,1.85-5.49,4.91-6.1,9.47-12.4,16.28-16.88,4.18-2.75,8.42-5.48,13.14-6.24Z"/>
  <path class="st1" d="M94.08,108.63c1.93-2.88,4.24-5.57,5.16-9.02-2.32.78-3.89,1.96-6.27,2.47l3.33-10.51c-2,.68-3.07,2.2-4.92,2.44,1.21-5.38,2.68-10.99-.09-15.84-2.56-4.47-7.56-7.68-12.29-8.62.26-.67,1.07-.72,1.55-1.12.05.34.24.69.77.83,9.24,2.55,15.06,7.81,14.36,18.33l6.84-5.16c-1.05,5.06-2.95,9.41-4.29,14.16l5.89-2.69c-1.12,4.08-6.29,14.27-10.03,14.71Z"/>
  <path class="st4" d="M59.44,30.51c-4.72.76-8.96,3.49-13.14,6.24-6.81,4.48-11.37,10.79-16.28,16.88,3.8-14.14,16.03-25.07,30.36-28.77.63-.16,1.33.13,1.63.49.07.08-3.17,6.82-2.57,5.15Z"/>
  <path class="st12" d="M103.48,81.6c-.86-8.12-1.34-9.28-4.3-17,1.67.69,2.74,1.97,4.48,3.13,1.68-2.75.38-7.58,1.2-11.44,4.74,7.63,5.29,17.72-1.39,25.31Z"/>
  <path class="st9" d="M94.08,108.63c-.25.37-.52.88-.69,1.26-.72.14-.77,1.27-1.31,1.79-14.21,8.21-31.67,11.94-46.91,4.1-5.3-2.72-9.32-6.82-11.72-12.3-4.21-9.65-5.03-19.23,1.11-27.96,1.72,1.96,3.85,3.64,6.38,4.27,6.15,1.55,11.07,5.23,14.37,11.28.42-3.62-1.69-6.93-4.26-9.16.57-.54,1.44-.54,2.43-.53,9.96.08,19.4-3.87,25.5-11.4v-.43c4.74.94,9.74,4.14,12.3,8.62,2.78,4.85,1.3,10.46.09,15.84,1.85-.25,2.93-1.76,4.92-2.44l-3.33,10.51c2.39-.51,3.95-1.7,6.27-2.47-.93,3.45-3.23,6.14-5.16,9.02ZM79.24,79.35c-7.82-2-16.49,3.19-16.75,11.81,3.57-6.57,9.24-10.15,16.75-11.81ZM48.9,97.52c-.62-3.08,2.11-.59,2.91-6.93.82.29.8,1.29,2.14,1.37-.62-2.91-3.08-5.54-5.65-6.51-3.26-1.24-6.7-.86-9.3,1.38.89.93,1.81-.11,3.07.25-4.12,6.16,1.28,6.91-1.02,8.86l7.85,1.58ZM79.42,96.2c-.62-.95-1.42-.63-1.98-1.16,1.99-2.59,1.74-5.59-.33-8,1.79-.61,3.09.61,4.85.71-2.4-2.9-6.36-3.46-10.36-2.47-2.79.69-5.9,3.28-7.18,6.61,1.53-.3,2.02-1.65,3.33-2.12-.35,6.22,2.73,5.01,3.88,7.77,2.61-.19,5.32-.82,7.79-1.35ZM55.9,112.72c9.1,2.62,18.82.15,25.6-6.59.92.55.74,1.48,1.29,2.41.95-1.15,1.2-3.97-.3-4.97s-3.68-.33-5.01.13c.91.7,1.84.45,2.49,1.17-3.56,3.57-8,5.68-12.86,6.76-3.69.97-7.26.61-11.21,1.09Z"/>
  <path class="st8" d="M78.98,69.99c-6.1,7.53-15.53,11.48-25.5,11.4-1,0-1.86,0-2.43.53-1.94-1.68-8.65-4.08-10.1-2.12-2.53-.64-4.65-2.31-6.38-4.27.93-1.33,1.22-3.29,3.01-4.47,14.17,6.62,27.95,6.87,41.4-1.06Z"/>
  <path class="st0" d="M79.42,96.2c-2.47.53-5.18,1.16-7.79,1.35-1.15-2.75-4.23-1.54-3.88-7.77-1.31.46-1.79,1.81-3.33,2.12,1.27-3.34,4.39-5.92,7.18-6.61,4-.99,7.96-.43,10.36,2.47-1.76-.1-3.06-1.32-4.85-.71,2.07,2.41,2.32,5.41.33,8,.56.52,1.36.21,1.98,1.16ZM70.15,91.8c-.72.49-.61,1.72-.2,2.19.51.59,1.69.63,2.12.21.71-.67.63-1.74.18-2.22-.54-.57-1.38-.68-2.11-.19Z"/>
  <path class="st0" d="M48.9,97.52l-7.85-1.58c2.29-1.95-3.1-2.7,1.02-8.86-1.26-.36-2.18.67-3.07-.25,2.6-2.24,6.05-2.61,9.3-1.38,2.56.97,5.02,3.61,5.65,6.51-1.34-.08-1.32-1.08-2.14-1.37-.8,6.33-3.53,3.84-2.91,6.93ZM42.66,91.3c-.79.43-.77,1.63-.34,2.19.47.6,1.53.65,2.15.18s.6-1.51.14-2.1c-.36-.47-1.27-.64-1.95-.27Z"/>
  <path class="st6" d="M55.9,112.72c3.95-.48,7.52-.12,11.21-1.09,4.86-1.07,9.3-3.19,12.86-6.76-.65-.72-1.57-.47-2.49-1.17,1.33-.46,3.52-1.12,5.01-.13s1.24,3.82.3,4.97c-.55-.94-.36-1.86-1.29-2.41-6.79,6.74-16.5,9.21-25.6,6.59Z"/>
  <path class="st2" d="M79.24,79.35c-7.51,1.66-13.18,5.25-16.75,11.81.26-8.62,8.93-13.82,16.75-11.81Z"/>
  <path class="st10" d="M51.05,81.91c2.58,2.23,4.68,5.55,4.26,9.16-3.29-6.06-8.22-9.73-14.37-11.28,1.45-1.96,8.16.44,10.1,2.12Z"/>
  <path class="st3" d="M70.15,91.8c.73-.49,1.57-.39,2.11.19.45.48.52,1.55-.18,2.22-.43.41-1.61.37-2.12-.21-.41-.47-.53-1.7.2-2.19Z"/>
  <path class="st11" d="M42.66,91.3c.69-.37,1.59-.21,1.95.27.45.59.45,1.66-.14,2.1s-1.68.42-2.15-.18c-.43-.56-.45-1.76.34-2.19Z"/></svg>